{"title":"Flight 2012 DVDSCR XviD Ac3 Feel-Free","uid":7953550,"size":1588875540,"categoryP":"video","categoryS":"movies","magnet":"?xt=urn:btih:23fa205af3c4f00187c4cb7971cf25ce7f0e2035&amp;dn=Flight+2012+DVDSCR+XviD+Ac3+Feel-Free&amp;tr=udp%3A%2F%2Ftracker.openbittorrent.com%3A80&amp;tr=udp%3A%2F%2Fopen.demonii.com%3A1337&amp;tr=udp%3A%2F%2Ftracker.coppersurfer.tk%3A6969&amp;tr=udp%3A%2F%2Fexodus.desync.com%3A6969","seeders":1,"leechers":0,"uploader":".BONE.","files":9,"time":1356308361,"description":"Genre:Drama\nLanguage:English &lt;a href=&quot;\nhttp://www.imdb.com/title/tt1907668/&quot; rel=&quot;nofollow&quot; target=&quot;_NEW&quot;&gt;\nhttp://www.imdb.com/title/tt1907668/&lt;/a&gt;\nSource:DVDSCR Thanks\nEncoder:Tony\n\nFormat : AVI\nFormat/Info : Audio Video Interleave\nFile size : 1.48 GiB\nDuration : 2h 18mn\nOverall bit rate : 1 528 Kbps\n\nVideo\nID : 0\nFormat : MPEG-4 Visual\nFormat profile : Advanced Simple@L5\nFormat settings, BVOP : 1\nFormat settings, QPel : No\nFormat settings, GMC : No warppoints\nFormat settings, Matrix : Default (H.263)\nCodec ID : XVID\nCodec ID/Hint : XviD\nDuration : 2h 18mn\nBit rate : 1 134 Kbps\nWidth : 640 pixels\nHeight : 272 pixels\nDisplay aspect ratio : 2.35:1\nFrame rate : 23.976 fps\nColor space : YUV\nChroma subsampling : 4:2:0\nBit depth : 8 bits\nScan type : Progressive\nCompression mode : Lossy\nBits/(Pixel*Frame) : 0.272\nStream size : 1.10 GiB (74%)\nWriting library : XviD 1.2.1 (UTC 2008-12-04)\n\nAudio\nID : 1\nFormat : AC-3\nFormat/Info : Audio Coding 3\nMode extension : CM (complete main)\nCodec ID : 2000\nDuration : 2h 18mn\nBit rate mode : Constant\nBit rate : 384 Kbps\nChannel(s) : 6 channels\nChannel positions : Front: L C R, Side: L R, LFE\nSampling rate : 48.0 KHz\nBit depth : 16 bits\nCompression mode : Lossy\nStream size : 381 MiB (25%)\nAlignment : Aligned on interleaves\nInterleave, duration : 42 ms (1.00 video frame)\nInterleave, preload duration : 512 ms\n\nPlot:\nAn airline pilot saves a flight from crashing, but an investigation into the malfunctions reveals something troubling.","torrent":{"xt":"urn:btih:23fa205af3c4f00187c4cb7971cf25ce7f0e2035","amp;dn":"Flight+2012+DVDSCR+XviD+Ac3+Feel-Free","amp;tr":["udp%3A%2F%2Ftracker.openbittorrent.com%3A80","udp%3A%2F%2Fopen.demonii.com%3A1337","udp%3A%2F%2Ftracker.coppersurfer.tk%3A6969","udp%3A%2F%2Fexodus.desync.com%3A6969"],"infoHash":"23fa205af3c4f00187c4cb7971cf25ce7f0e2035","infoHashBuffer":{"type":"Buffer","data":[35,250,32,90,243,196,240,1,135,196,203,121,113,207,37,206,127,14,32,53]},"announce":[],"urlList":[]}}